<svg xmlns="http://www.w3.org/2000/svg" viewBox="0 0 100 125" x="0px" y="0px"><defs><style>.a{fill:#231f20;}</style></defs><title>100icons2017</title><path className="a" d="M33.16,29.63H23.78a.85.85,0,0,1-.85-.85V23.11a.85.85,0,0,1,.85-.85h9.38a.85.85,0,0,1,.85.85v5.67A.85.85,0,0,1,33.16,29.63Zm-8.53-1.7h7.68V24H24.63Z"/><path className="a" d="M33.59,23.38a.85.85,0,0,1-.79-1.16l2.12-5.4a.84.84,0,0,1,.13-.22c2.32-2.86,3.41-3.5,6.85-3.57V10.46H24.42a7.14,7.14,0,0,0-4.27,2.7c1.31.24,3.36.81,3.51,2.1l.65,7.19a.85.85,0,0,1-1.69.15l-.64-7a7.1,7.1,0,0,0-2.92-.85.85.85,0,0,1-.85-.85c0-2.39,4-5,6.17-5.1H42.75a.85.85,0,0,1,.85.85v4.25a.85.85,0,0,1-.85.85c-3.56,0-4.19.27-6.29,2.85l-2.07,5.28A.85.85,0,0,1,33.59,23.38Z"/><path className="a" d="M47.3,15H42.75a.85.85,0,0,1-.85-.85V9a.85.85,0,0,1,.85-.85H47.3a.85.85,0,0,1,.85.85v5.13A.85.85,0,0,1,47.3,15Zm-3.7-1.7h2.85V9.85H43.6Z"/><path className="a" d="M43.5,24.8A2.8,2.8,0,0,1,41.55,24L41,23.5c-1.57-1.39-4.19-3.73-3.81-7.86a.85.85,0,0,1,1.69.16c-.3,3.27,1.75,5.1,3.25,6.43l.62.57a1.15,1.15,0,0,0,1.66-.13,1.07,1.07,0,0,0,.19-.93,24,24,0,0,1-.4-7.7.85.85,0,0,1,1.69.2,22.67,22.67,0,0,0,.36,7.07,2.76,2.76,0,0,1-.49,2.4A2.8,2.8,0,0,1,43.5,24.8Z"/><path className="a" d="M17.09,73.73h0a.85.85,0,0,1-.82-.88c0-1.43.06-2.8.08-4.09.1-8.77.18-15.11,9.66-16.06,10.26-1,14.44,2.59,14.61,2.75a.85.85,0,0,1-1.13,1.27c-.06-.05-3.91-3.27-13.32-2.33-8,.8-8,5.62-8.13,14.39,0,1.3,0,2.68-.08,4.13A.85.85,0,0,1,17.09,73.73Z"/><path className="a" d="M71.89,27.19a6.6,6.6,0,1,1,6.6-6.6A6.6,6.6,0,0,1,71.89,27.19Zm0-11.49a4.9,4.9,0,1,0,4.9,4.9A4.9,4.9,0,0,0,71.89,15.7Z"/><path className="a" d="M69.16,21.45a.85.85,0,0,1-.85-.85A3.58,3.58,0,0,1,71.89,17a.85.85,0,1,1,0,1.7A1.88,1.88,0,0,0,70,20.6.85.85,0,0,1,69.16,21.45Z"/><path className="a" d="M45.72,86.1a.85.85,0,0,1-.85-.85,3.58,3.58,0,0,1,3.58-3.58.85.85,0,1,1,0,1.7,1.88,1.88,0,0,0-1.88,1.88A.85.85,0,0,1,45.72,86.1Z"/><path className="a" d="M65.1,91.85a6.55,6.55,0,0,1-5.58-3.08,4.49,4.49,0,0,1-5.38-.19,6.59,6.59,0,0,1-10.7,1,4.36,4.36,0,1,1-.74-8.65,4.41,4.41,0,0,1,.74.06,6.59,6.59,0,0,1,10.7,1,4.49,4.49,0,0,1,5.38-.19,6.59,6.59,0,0,1,10.73-.61,4.43,4.43,0,0,1,4.22.79A4.77,4.77,0,0,1,76,81.68a4.83,4.83,0,1,1-3.74,7.89,4.32,4.32,0,0,1-2-.19A6.56,6.56,0,0,1,65.1,91.85ZM59.75,86.5h.11a.85.85,0,0,1,.68.53,4.89,4.89,0,0,0,8.69.82.85.85,0,0,1,1.13-.29,2.6,2.6,0,0,0,2,.23.85.85,0,0,1,1,.37A3.13,3.13,0,1,0,76,83.38a3.09,3.09,0,0,0-1.35.31.85.85,0,0,1-1-.2,2.7,2.7,0,0,0-3.27-.56.85.85,0,0,1-1.13-.29,4.89,4.89,0,0,0-8.69.83.85.85,0,0,1-1.47.2,2.63,2.63,0,0,0-2.12-1.07,2.67,2.67,0,0,0-2.3,1.33.83.83,0,0,1-.83.42.85.85,0,0,1-.72-.58,4.89,4.89,0,0,0-8.64-1.34.85.85,0,0,1-1,.31,2.66,2.66,0,1,0-.81,5.19,2.69,2.69,0,0,0,.82-.13.85.85,0,0,1,.95.31,4.89,4.89,0,0,0,8.64-1.34.85.85,0,0,1,1.54-.17,2.67,2.67,0,0,0,2.3,1.33,2.63,2.63,0,0,0,2.12-1.07A.85.85,0,0,1,59.75,86.5Z"/><path className="a" d="M62.38,86.1a.85.85,0,0,1-.85-.85,3.58,3.58,0,0,1,3.58-3.58.85.85,0,1,1,0,1.7,1.88,1.88,0,0,0-1.88,1.88A.85.85,0,0,1,62.38,86.1Z"/><path className="a" d="M76.78,48A5.22,5.22,0,1,1,82,42.83,5.22,5.22,0,0,1,76.78,48Zm0-8.74a3.52,3.52,0,1,0,3.52,3.52A3.52,3.52,0,0,0,76.78,39.31Z"/><path className="a" d="M75.42,44a.85.85,0,0,1-.85-.85,2.54,2.54,0,0,1,2.53-2.53.85.85,0,1,1,0,1.7.84.84,0,0,0-.83.83A.85.85,0,0,1,75.42,44Z"/><path className="a" d="M61.63,60.34a5.22,5.22,0,1,1,5.22-5.22A5.22,5.22,0,0,1,61.63,60.34Zm0-8.74a3.52,3.52,0,1,0,3.52,3.52A3.52,3.52,0,0,0,61.63,51.61Z"/><path className="a" d="M60.27,56.3a.85.85,0,0,1-.85-.85A2.54,2.54,0,0,1,62,52.92a.85.85,0,1,1,0,1.7.83.83,0,0,0-.83.83A.85.85,0,0,1,60.27,56.3Z"/><path className="a" d="M56.76,29.58a.85.85,0,0,1-.85-.85V24.9a.85.85,0,0,1,1.7,0v3.83A.85.85,0,0,1,56.76,29.58Z"/><path className="a" d="M56.76,38.86a.85.85,0,0,1-.85-.85V34.18a.85.85,0,0,1,1.7,0V38A.85.85,0,0,1,56.76,38.86Z"/><path className="a" d="M54,32.3H50.21a.85.85,0,1,1,0-1.7H54a.85.85,0,1,1,0,1.7Z"/><path className="a" d="M63.32,32.3H59.49a.85.85,0,1,1,0-1.7h3.83a.85.85,0,1,1,0,1.7Z"/><path className="a" d="M87.34,84.85H80a.85.85,0,1,1,0-1.7h6.52V70.42H52.05V79a.85.85,0,0,1-1.7,0V69.57a.85.85,0,0,1,.85-.85H87.34a.85.85,0,0,1,.85.85V84A.85.85,0,0,1,87.34,84.85Z"/><path className="a" d="M76.66,75.94H52.51a.85.85,0,1,1,0-1.7H76.66a.85.85,0,1,1,0,1.7Z"/><path className="a" d="M35.77,90.67H21.18a9.37,9.37,0,0,1-9.37-9.36V61.65A36.84,36.84,0,0,1,13.9,49.41l4.47-16.69a7.1,7.1,0,0,1,6.7-4.79h6.81a7.09,7.09,0,0,1,6.68,4.73l4.23,16a41.58,41.58,0,0,1,2.35,13.82V81.3a.85.85,0,0,1-.23.58,5,5,0,0,0-.43.52.85.85,0,0,1-1,.31,2.66,2.66,0,0,0-2.26,4.75.85.85,0,0,1,0,1.4A9.3,9.3,0,0,1,35.77,90.67Zm-10.7-61A5.39,5.39,0,0,0,20,33.22L15.52,49.91a35.31,35.31,0,0,0-2,11.74V81.31A7.67,7.67,0,0,0,21.18,89H35.77a7.61,7.61,0,0,0,3.61-.9A4.36,4.36,0,0,1,43.43,81V62.49a40.05,40.05,0,0,0-2.27-13.32l-4.23-16a5.37,5.37,0,0,0-5.06-3.53Z"/><text x="0" y="115" fill="#000000" font-size="5px" font-weight="bold" font-family="'Helvetica Neue', Helvetica, Arial-Unicode, Arial, Sans-serif">Created by Becca O'Shea</text><text x="0" y="120" fill="#000000" font-size="5px" font-weight="bold" font-family="'Helvetica Neue', Helvetica, Arial-Unicode, Arial, Sans-serif">from the Noun Project</text></svg>