<svg width="37" height="10" fill="none" xmlns="http://www.w3.org/2000/svg"><path d="M20.9295 2.62482c.1669-1.32338-.8414-1.875797-2.1004-1.875797h-3.3078L13.5684 7.86613h2.1022l.5913-2.1939 1.6748.01032s2.5934.10988 2.9934-3.05712l-.0006-.00061zm-2.1617.70661c-.2732.76307-1.0247.67322-1.0247.67322h-1.032l.4067-1.51156s.6514.00303 1.0818.00303c.5269.00061.7181.41887.5682.83531zM8.92136 2.69578h1.91704l-.7891 3.03527s-.19672.67747.437.72846c.5009.04128.873-.55606.995-.96035.1603-.53118.7837-2.80702.7837-2.80702h1.9754l-1.5031 5.17088h-1.7252l.2118-.73878s-.8802 1.07266-2.18538.94397c-1.1619-.11413-1.26206-.95672-1.06113-2.00814.09895-.51599.94518-3.36793.94518-3.36793" fill="#2F3085"/><path d="M25.5929 5.31652c.2525-.8602.5718-1.67486.3151-2.12469-.3946-.69265-1.1055-.75335-2.146-.75335-1.1497 0-2.569.21854-3.0316 1.7471h1.914s.1743-.5761.893-.53967c.6362.03217.601.46986.3642.71146-.4109.42494-1.5461.1888-2.8033.62527-1.0982.38123-1.4825 1.82541-1.2439 2.40151.2313.55909.6617.63012 1.2426.68718.9331.09167 1.6488-.42858 1.9815-.73393 0 .33934.0091.52875.0091.52875h2.0142l-.0049-.1894s-.1821-.04735-.1596-.29989c.0145-.18212.3642-1.07266.6526-2.06095l.003.00061zm-2.8963 1.49639c-.3284.08316-.7284.12869-.8055-.16998-.2167-.8177 1.6997-1.05688 1.6997-1.05688.011.74486-.6422 1.16251-.8942 1.22686zM8.44428 2.40823C8.61122 1.08486 7.44689.750977 6.18786.750977H2.88063L.927734 7.86626H3.02996l.65623-2.41608 1.1789.00971s.48564-.02853.49596.42858c.01032.48565-.36423 1.38227-.33691 1.97779h2.15929l-.00486-.1894s-.18212-.04735-.15966-.29989c.0085-.10502.12142-.43708.27561-.88448.14105-.33186.21492-.6884.21732-1.04899-.01578-.47593-.31445-.69689-.74546-.84987 1.3422-.31446 1.6779-2.1854 1.6779-2.1854zm-2.22971.91058c-.27196.62952-1.11455.55789-1.11455.55789l-.981-.00486.35816-1.33552s.8778.00304 1.3082.00304c.46075-.00061.60584.36969.42919.77581v.00364zM26.5047 2.6958h1.9529v3.10205l1.6895-3.10205h1.792l-3.6132 6.27208s-.3351.52632-.7515.80435c-.3418.22887-.7619.21854-.8906.22764-.7139-.00607-1.5747-.00789-1.5747-.00789l.4153-1.49517h.672s.3071-.03157.4249-.18212c.1162-.14049.1771-.31859.1712-.50082 0-.31809-.289-5.11625-.289-5.11625" fill="#2F3085"/><path d="M34.4438 1.50049l-2.2546 7.84253 4.2202-3.92096-1.9656-3.92157z" fill="#0E8147"/><path d="M32.999 1.50049l-2.2546 7.84253 4.2196-3.92096-1.965-3.92157z" fill="#EF7322"/></svg>